<svg id="Layer_1" data-name="Layer 1" xmlns="http://www.w3.org/2000/svg" viewBox="0 0 27 13.5"><path d="M27.75,15.92h-24a1.5,1.5,0,0,1-1.5-1.5V3.92a1.5,1.5,0,0,1,1.5-1.5h24a1.5,1.5,0,0,1,1.5,1.5v10.5A1.5,1.5,0,0,1,27.75,15.92Zm0-12h-24v10.5h24Z" transform="translate(-2.25 -2.42)"/><polygon points="18.82 9.44 19.88 10.5 23.63 6.75 19.88 3 18.82 4.06 20.75 6 13.5 6 13.5 7.5 20.75 7.5 18.82 9.44"/><path d="M15.75,3.92h-12v10.5h12Zm-9,9H5.25V7.67h1.5Zm3,0H8.25V5.42h1.5Zm3,0h-1.5v-3h1.5Z" transform="translate(-2.25 -2.42)"/></svg>